<?xml version="1.0" encoding="UTF-8" standalone="no"?>
<svg id="Layer_1" 
     style="enable-background:new 0 0 128 128;"
     version="1.1"
     viewBox="0 0 128 128"
     xml:space="preserve"
     xmlns="http://www.w3.org/2000/svg"
     xmlns:xlink="http://www.w3.org/1999/xlink">
  <style type="text/css">
  .st0{fill:#4D4D4D;}
  .st1{fill:#FFFFFF;}
  </style>
  <circle class="st0" cx="64" cy="64" r="64"/>
  <g>
    <path class="st1" d="M30,30 L80,30 L98,48 L98,98 L30,98 z"/>
    <path class="st0" d="M40,32 L75,32 L75,48 L40,48 z"/>
    <path class="st1" d="M65,34 L70,34 L70,46 L65,46 z"/>
    <path class="st0" d="M40,60 L88,60 L88,96 L40,96 z"/>
    <path class="st1" d="M45,68 L83,68 L83,70 L45,70 z"/>
    <path class="st1" d="M45,78 L83,78 L83,80 L45,80 z"/>
    <path class="st1" d="M45,88 L83,88 L83,90 L45,90 z"/>
  </g>
</svg>
