<svg xmlns:svg="http://www.w3.org/2000/svg" xmlns="http://www.w3.org/2000/svg" version="1.1" width="320" height="320"><rect id="backgroundrect" width="100%" height="100%" x="0" y="0" fill="none" stroke="none" class="" style=""/>
  <style type="text/css">
  .st0{fill:#4D4D4D;}
  .st1{fill:#FFFFFF;}
  </style>
  
<g class="currentLayer" style=""><title>Layer 1</title><g id="svg_1" class="">
    <path class="st0" d="m211.6666717529297,160.00000286102295 q0,21.393229693174362 -15.13671912252903,36.52994881570339 q-15.13671912252903,15.13671912252903 -36.52994881570339,15.13671912252903 q-21.393229693174362,0 -36.52994881570339,-15.13671912252903 q-15.13671912252903,-15.13671912252903 -15.13671912252903,-36.52994881570339 q0,-21.393229693174362 15.13671912252903,-36.52994881570339 q15.13671912252903,-15.13671912252903 36.52994881570339,-15.13671912252903 q21.393229693174362,0 36.52994881570339,15.13671912252903 q15.13671912252903,15.13671912252903 15.13671912252903,36.52994881570339 zm103.33333587646484,21.998698458075523 V137.19401271641254 q0,-2.4218750596046448 -1.6145833730697632,-4.641927197575569 q-1.6145833730697632,-2.2200521379709244 -4.036458432674408,-2.623697981238365 l-37.337240502238274,-5.651041805744171 q-3.8346355110406876,-10.898437768220901 -7.8710939437150955,-18.365885868668556 q7.063802257180214,-10.09114608168602 21.595052614808083,-27.851563185453415 q2.018229216337204,-2.4218750596046448 2.018229216337204,-5.04557304084301 q0,-2.623697981238365 -1.8164062947034836,-4.641927197575569 q-5.449218884110451,-7.467448100447655 -19.98046924173832,-21.796875536441803 q-14.531250357627869,-14.329427435994148 -18.971354633569717,-14.329427435994148 q-2.4218750596046448,0 -5.24739596247673,1.8164062947034836 l-27.851563185453415,21.796875536441803 q-8.880208551883698,-4.641927197575569 -18.365885868668556,-7.669271022081375 q-3.2291667461395264,-27.447917342185974 -5.8528647273778915,-37.539063423871994 q-1.4127604514360428,-5.651041805744171 -7.265625178813934,-5.651041805744171 H137.5976595133543 q-2.8255209028720856,0 -4.94466158002615,1.7154948338866234 Q130.5338572561741,8.43098871409893 130.33203433454037,11.054686695337296 L124.6809925287962,48.19010427594185 q-9.8893231600523,3.2291667461395264 -18.164062947034836,7.467448100447655 L78.05989763140678,34.06249976158142 Q76.04166841506958,32.24609346687794 73.01432459056377,32.24609346687794 Q70.18880368769169,32.24609346687794 67.96875154972076,34.46614560484886 Q42.539063423871994,57.47395867109299 34.6679694801569,68.37239643931389 q-1.4127604514360428,2.018229216337204 -1.4127604514360428,4.641927197575569 q0,2.4218750596046448 1.6145833730697632,4.641927197575569 q3.027343824505806,4.238281354308128 10.29296900331974,13.421224288642406 q7.265625178813934,9.182942934334278 10.898437768220901,14.228515975177288 q-5.449218884110451,10.09114608168602 -8.274739786982536,19.98046924173832 L10.852864727377892,130.7356792241335 Q8.229166746139526,131.13932506740093 6.614583373069763,133.258465744555 Q5,135.37760642170906 5,138.00130440294743 v44.80468860268593 q0,2.4218750596046448 1.6145833730697632,4.641927197575569 q1.6145833730697632,2.2200521379709244 3.8346355110406876,2.623697981238365 l37.539063423871994,5.651041805744171 q2.8255209028720856,9.283854395151138 7.8710939437150955,18.567708790302277 q-8.072916865348816,11.503906533122063 -21.595052614808083,27.851563185453415 q-2.018229216337204,2.4218750596046448 -2.018229216337204,4.8437501192092896 q0,2.018229216337204 1.8164062947034836,4.641927197575569 q5.24739596247673,7.265625178813934 19.87955778092146,21.695964075624943 q14.632161818444729,14.430338896811008 19.072266094386578,14.430338896811008 q2.623697981238365,0 5.24739596247673,-2.018229216337204 l27.851563185453415,-21.595052614808083 q8.880208551883698,4.641927197575569 18.365885868668556,7.669271022081375 q3.2291667461395264,27.447917342185974 5.8528647273778915,37.539063423871994 q1.4127604514360428,5.651041805744171 7.265625178813934,5.651041805744171 h44.80468860268593 q2.8255209028720856,0 4.94466158002615,-1.7154948338866234 Q189.46615037322044,311.56901700794697 189.66797329485416,308.9453190267086 l5.651041805744171,-37.13541758060455 q9.8893231600523,-3.2291667461395264 18.164062947034836,-7.467448100447655 l28.658854871988297,21.595052614808083 q1.8164062947034836,1.8164062947034836 4.8437501192092896,1.8164062947034836 q2.623697981238365,0 5.04557304084301,-2.018229216337204 q26.03515689074993,-24.016927674412727 33.300782069563866,-34.30989667773247 q1.4127604514360428,-1.6145833730697632 1.4127604514360428,-4.440104275941849 q0,-2.4218750596046448 -1.6145833730697632,-4.641927197575569 q-3.027343824505806,-4.238281354308128 -10.29296900331974,-13.421224288642406 q-7.265625178813934,-9.182942934334278 -10.898437768220901,-14.228515975177288 q5.24739596247673,-10.09114608168602 8.274739786982536,-19.7786463201046 l36.93359465897083,-5.651041805744171 q2.623697981238365,-0.40364584326744096 4.238281354308128,-2.522786520421505 q1.6145833730697632,-2.119140677154064 1.6145833730697632,-4.742838658392429 z" id="svg_2"/>
  </g></g></svg>